<?xml version="1.0" encoding="utf-8"?>
<!-- Generator: Adobe Illustrator 25.3.1, SVG Export Plug-In . SVG Version: 6.00 Build 0)  -->
<svg version="1.1" xmlns="http://www.w3.org/2000/svg" xmlns:xlink="http://www.w3.org/1999/xlink" x="0px" y="0px"
	 viewBox="0 0 1160 772" style="enable-background:new 0 0 1160 772;" xml:space="preserve">
<style type="text/css">
	.st0{fill:#FFFFFF;}
	.st1{fill:#393846;}
	.st2{clip-path:url(#SVGID_2_);fill:#00BCFA;}
	.st3{clip-path:url(#SVGID_2_);}
	.st4{clip-path:url(#SVGID_2_);fill:#393846;}
	.st5{fill:#FFEB01;}
	.st6{fill:#FB615F;}
	.st7{fill:#DCD2DA;}
	.st8{clip-path:url(#SVGID_4_);fill:#393846;}
	.st9{fill:#FAB9BD;}
	.st10{clip-path:url(#SVGID_6_);fill:#393846;}
	.st11{clip-path:url(#SVGID_6_);}
</style>
<g id="Layer_2">
</g>
<g id="Layer_1">
	<rect class="st0" width="1160" height="772"/>
	<path class="st1" d="M1010.82,652.29H149.08c-0.83,0-1.5-0.67-1.5-1.5c0-0.83,0.67-1.5,1.5-1.5h861.75c0.83,0,1.5,0.67,1.5,1.5
		C1012.32,651.62,1011.65,652.29,1010.82,652.29z"/>
	<g>
		<g>
			<g>
				<path class="st1" d="M186.97,130.28h550.77l63.95,362.65H250.92L186.97,130.28z"/>
				<polygon class="st0" points="274.6,491.5 822.5,491.5 759.06,131.72 211.16,131.72 				"/>
				<g>
					<defs>
						<polygon id="SVGID_1_" points="274.6,491.5 822.5,491.5 759.06,131.72 211.16,131.72 						"/>
					</defs>
					<clipPath id="SVGID_2_">
						<use xlink:href="#SVGID_1_"  style="overflow:visible;"/>
					</clipPath>
					<polygon class="st2" points="173.26,173.01 896.22,173.01 885.72,113.48 162.76,113.48 					"/>
					<g class="st3">
						<g>
							
								<ellipse transform="matrix(0.6753 -0.7375 0.7375 0.6753 104.6603 540.147)" class="st0" cx="665.84" cy="151.2" rx="7.78" ry="9.28"/>
						</g>
						<g>
							<path class="st0" d="M720.86,151.2c0.83,4.69,5.3,8.5,10,8.5s7.83-3.8,7-8.5c-0.83-4.69-5.3-8.5-10-8.5
								C723.16,142.7,720.03,146.5,720.86,151.2z"/>
							<path class="st1" d="M719.38,151.46L719.38,151.46c-0.48-2.74,0.16-5.32,1.8-7.28c1.61-1.92,3.98-2.98,6.68-2.98
								c5.38,0,10.53,4.37,11.47,9.74c0.48,2.74-0.15,5.32-1.8,7.28c-1.61,1.92-3.98,2.98-6.68,2.98
								C725.47,161.2,720.33,156.83,719.38,151.46z M723.47,146.11c-1.06,1.26-1.47,2.98-1.14,4.83c0.71,4,4.53,7.26,8.52,7.26
								c1.79,0,3.35-0.68,4.38-1.91c1.06-1.26,1.47-2.98,1.14-4.83c-0.71-4-4.53-7.26-8.52-7.26
								C726.06,144.2,724.51,144.88,723.47,146.11z M720.85,151.2L720.85,151.2L720.85,151.2z"/>
						</g>
						<g>
							
								<ellipse transform="matrix(0.6753 -0.7375 0.7375 0.6753 114.9673 563.5632)" class="st0" cx="697.6" cy="151.2" rx="7.78" ry="9.28"/>
							<path class="st1" d="M687.62,151.46L687.62,151.46c-0.48-2.74,0.15-5.32,1.8-7.28c1.61-1.92,3.98-2.98,6.68-2.98
								c5.38,0,10.53,4.37,11.47,9.74c0.48,2.74-0.15,5.32-1.8,7.28c-1.61,1.92-3.98,2.98-6.68,2.98
								C693.72,161.2,688.57,156.83,687.62,151.46z M691.72,146.11c-1.06,1.26-1.47,2.98-1.14,4.83v0c0.71,4,4.53,7.26,8.52,7.26
								c1.79,0,3.35-0.68,4.38-1.91c1.06-1.26,1.47-2.98,1.14-4.83c-0.71-4-4.53-7.26-8.52-7.26
								C694.31,144.2,692.75,144.88,691.72,146.11z"/>
						</g>
					</g>
					<path class="st4" d="M655.87,151.46c-0.48-2.74,0.15-5.32,1.8-7.28c1.61-1.92,3.98-2.98,6.68-2.98
						c5.38,0,10.53,4.37,11.47,9.74c0.48,2.74-0.16,5.32-1.8,7.28c-1.61,1.92-3.98,2.98-6.68,2.98
						C661.96,161.2,656.81,156.83,655.87,151.46z M659.96,146.11c-1.06,1.26-1.47,2.98-1.14,4.83c0.71,4,4.53,7.26,8.52,7.26
						c1.79,0,3.35-0.68,4.38-1.91c1.06-1.26,1.47-2.98,1.14-4.83c-0.71-4-4.53-7.26-8.52-7.26
						C662.55,144.2,660.99,144.88,659.96,146.11z"/>
				</g>
				<path class="st1" d="M209.37,130.22h550.94L824.28,493H273.34L209.37,130.22z M757.8,133.22H212.95L275.86,490h544.85
					L757.8,133.22z"/>
			</g>
			<g>
				<g>
					<g>
						<polygon class="st0" points="580.99,230.37 544.15,230.37 537.65,193.52 574.5,193.52 						"/>
						<path class="st1" d="M560.42,222.52c-0.45,0-0.89-0.21-1.17-0.56l-15.96-20.02c-0.52-0.65-0.41-1.59,0.24-2.11
							c0.65-0.52,1.59-0.41,2.11,0.24l14.53,18.23l15.99-30.42c0.39-0.73,1.29-1.02,2.03-0.63c0.73,0.39,1.02,1.29,0.63,2.03
							l-17.06,32.45c-0.24,0.45-0.68,0.75-1.19,0.79C560.52,222.52,560.47,222.52,560.42,222.52z"/>
						<path class="st1" d="M580.99,231.87h-36.85c-0.73,0-1.35-0.52-1.48-1.24l-6.5-36.85c-0.08-0.44,0.04-0.88,0.33-1.22
							c0.28-0.34,0.71-0.54,1.15-0.54h36.85c0.73,0,1.35,0.52,1.48,1.24l6.5,36.85c0.08,0.44-0.04,0.88-0.33,1.22
							C581.86,231.68,581.44,231.87,580.99,231.87z M545.4,228.87h33.8l-5.97-33.85h-33.8L545.4,228.87z"/>
					</g>
					<g>
						<g>
							<polygon class="st0" points="513.54,207.15 356.39,207.15 353.97,193.42 511.12,193.42 							"/>
							<path class="st1" d="M513.54,208.65H356.39c-0.73,0-1.35-0.52-1.48-1.24l-2.42-13.73c-0.08-0.44,0.04-0.88,0.33-1.22
								c0.28-0.34,0.71-0.54,1.15-0.54h157.16c0.73,0,1.35,0.52,1.48,1.24l2.42,13.73c0.08,0.44-0.04,0.88-0.33,1.22
								C514.41,208.46,513.99,208.65,513.54,208.65z M357.64,205.65h154.11l-1.89-10.73H355.75L357.64,205.65z"/>
						</g>
						<g>
							<polygon class="st0" points="427.69,230.35 360.48,230.35 358.06,216.62 425.27,216.62 							"/>
							<path class="st1" d="M427.69,231.85h-67.22c-0.73,0-1.35-0.52-1.48-1.24l-2.42-13.73c-0.08-0.44,0.04-0.88,0.33-1.22
								c0.28-0.34,0.71-0.54,1.15-0.54h67.22c0.73,0,1.35,0.52,1.48,1.24l2.42,13.73c0.08,0.44-0.04,0.88-0.33,1.22
								C428.56,231.65,428.14,231.85,427.69,231.85z M361.73,228.85h64.17l-1.89-10.73h-64.17L361.73,228.85z"/>
						</g>
					</g>
				</g>
				<g>
					<g>
						<polygon class="st0" points="595.65,313.48 558.8,313.48 552.3,276.63 589.15,276.63 						"/>
						<path class="st1" d="M575.08,305.63c-0.45,0-0.89-0.21-1.17-0.56l-15.96-20.02c-0.52-0.65-0.41-1.59,0.24-2.11
							c0.65-0.52,1.59-0.41,2.11,0.24l14.53,18.23l15.99-30.42c0.38-0.73,1.29-1.02,2.03-0.63c0.73,0.39,1.01,1.29,0.63,2.03
							l-17.06,32.45c-0.24,0.45-0.68,0.75-1.19,0.8C575.17,305.62,575.12,305.63,575.08,305.63z"/>
						<path class="st1" d="M595.65,314.98H558.8c-0.73,0-1.35-0.52-1.48-1.24l-6.5-36.85c-0.08-0.44,0.04-0.88,0.33-1.22
							c0.28-0.34,0.71-0.54,1.15-0.54h36.85c0.73,0,1.35,0.52,1.48,1.24l6.5,36.85c0.08,0.44-0.04,0.88-0.33,1.22
							C596.51,314.78,596.09,314.98,595.65,314.98z M560.06,311.98h33.8l-5.97-33.85h-33.8L560.06,311.98z"/>
					</g>
					<g>
						<g>
							<polygon class="st0" points="528.2,290.26 371.04,290.26 368.62,276.53 525.78,276.53 							"/>
							<path class="st1" d="M528.2,291.76H371.04c-0.73,0-1.35-0.52-1.48-1.24l-2.42-13.73c-0.08-0.44,0.04-0.88,0.33-1.22
								c0.28-0.34,0.71-0.54,1.15-0.54h157.16c0.73,0,1.35,0.52,1.48,1.24l2.42,13.73c0.08,0.44-0.04,0.88-0.33,1.22
								C529.06,291.56,528.64,291.76,528.2,291.76z M372.3,288.76h154.11l-1.89-10.73H370.41L372.3,288.76z"/>
						</g>
						<g>
							<polygon class="st0" points="485.42,313.45 375.13,313.45 372.71,299.72 483,299.72 							"/>
							<path class="st1" d="M485.42,314.95H375.13c-0.73,0-1.35-0.52-1.48-1.24l-2.42-13.73c-0.08-0.44,0.04-0.88,0.33-1.22
								c0.28-0.34,0.71-0.54,1.15-0.54H483c0.73,0,1.35,0.52,1.48,1.24l2.42,13.73c0.08,0.44-0.04,0.88-0.33,1.22
								C486.29,314.75,485.87,314.95,485.42,314.95z M376.39,311.95h107.25l-1.89-10.73H374.5L376.39,311.95z"/>
						</g>
					</g>
				</g>
				<g>
					<g>
						<polygon class="st0" points="623.56,471.79 586.71,471.79 580.22,434.94 617.06,434.94 						"/>
						<path class="st1" d="M623.56,473.29h-36.85c-0.73,0-1.35-0.52-1.48-1.24l-6.5-36.85c-0.08-0.44,0.04-0.89,0.33-1.22
							c0.28-0.34,0.71-0.54,1.15-0.54h36.85c0.73,0,1.35,0.52,1.48,1.24l6.5,36.85c0.08,0.44-0.04,0.88-0.33,1.22
							C624.43,473.09,624.01,473.29,623.56,473.29z M587.97,470.29h33.8l-5.97-33.85H582L587.97,470.29z"/>
					</g>
					<g>
						<g>
							<polygon class="st0" points="556.11,448.57 398.95,448.57 396.53,434.84 553.69,434.84 							"/>
							<path class="st1" d="M556.11,450.07H398.95c-0.73,0-1.35-0.52-1.48-1.24l-2.42-13.73c-0.08-0.44,0.04-0.89,0.33-1.22
								c0.28-0.34,0.71-0.54,1.15-0.54h157.16c0.73,0,1.35,0.52,1.48,1.24l2.42,13.73c0.08,0.44-0.04,0.88-0.33,1.22
								C556.98,449.87,556.55,450.07,556.11,450.07z M400.21,447.07h154.11l-1.89-10.73H398.32L400.21,447.07z"/>
						</g>
						<g>
							<polygon class="st0" points="470.26,471.76 403.04,471.76 400.62,458.03 467.84,458.03 							"/>
							<path class="st1" d="M470.26,473.26h-67.22c-0.73,0-1.35-0.52-1.48-1.24l-2.42-13.73c-0.08-0.44,0.04-0.89,0.33-1.22
								c0.28-0.34,0.71-0.54,1.15-0.54h67.22c0.73,0,1.35,0.52,1.48,1.24l2.42,13.73c0.08,0.44-0.04,0.88-0.33,1.22
								C471.13,473.07,470.71,473.26,470.26,473.26z M404.3,470.26h64.17l-1.89-10.73h-64.17L404.3,470.26z"/>
						</g>
					</g>
				</g>
				<g>
					<g>
						<polygon class="st5" points="609.87,394.16 573.02,394.16 566.53,357.31 603.38,357.31 						"/>
						<path class="st1" d="M609.87,395.66h-36.85c-0.73,0-1.35-0.52-1.48-1.24l-6.5-36.85c-0.08-0.44,0.04-0.88,0.33-1.22
							c0.28-0.34,0.71-0.54,1.15-0.54h36.85c0.73,0,1.35,0.52,1.48,1.24l6.5,36.85c0.08,0.44-0.04,0.88-0.33,1.22
							C610.74,395.46,610.32,395.66,609.87,395.66z M574.28,392.66h33.8l-5.97-33.85h-33.8L574.28,392.66z"/>
					</g>
					<g>
						<g>
							<polygon class="st0" points="446.11,380.4 386.93,380.4 389.36,394.13 448.53,394.13 							"/>
							<path class="st1" d="M448.53,395.63h-59.17c-0.73,0-1.35-0.52-1.48-1.24l-2.42-13.73c-0.08-0.44,0.04-0.88,0.33-1.22
								c0.28-0.34,0.71-0.54,1.15-0.54h59.17c0.73,0,1.35,0.52,1.48,1.24l2.42,13.73c0.08,0.44-0.04,0.89-0.33,1.22
								C449.39,395.43,448.97,395.63,448.53,395.63z M390.61,392.63h56.12l-1.89-10.73h-56.12L390.61,392.63z"/>
						</g>
						<g>
							<polygon class="st0" points="545.99,380.4 457.94,380.4 460.36,394.13 548.41,394.13 							"/>
							<path class="st1" d="M548.41,395.63h-88.05c-0.73,0-1.35-0.52-1.48-1.24l-2.42-13.73c-0.08-0.44,0.04-0.89,0.33-1.22
								c0.28-0.34,0.71-0.54,1.15-0.54h88.05c0.73,0,1.35,0.52,1.48,1.24l2.42,13.73c0.08,0.44-0.04,0.89-0.33,1.22
								C549.27,395.43,548.85,395.63,548.41,395.63z M461.62,392.63h85l-1.89-10.73h-85L461.62,392.63z"/>
						</g>
						<g>
							<polygon class="st0" points="493.14,357.21 382.85,357.21 385.27,370.94 495.56,370.94 							"/>
							<path class="st1" d="M495.56,372.44H385.27c-0.73,0-1.35-0.52-1.48-1.24l-2.42-13.73c-0.08-0.44,0.04-0.89,0.33-1.23
								c0.28-0.34,0.71-0.54,1.15-0.54h110.29c0.73,0,1.35,0.52,1.48,1.24l2.42,13.73c0.08,0.44-0.04,0.89-0.33,1.22
								C496.42,372.24,496,372.44,495.56,372.44z M386.52,369.44h107.25l-1.89-10.73H384.63L386.52,369.44z"/>
						</g>
					</g>
				</g>
			</g>
		</g>
		<g>
			<g>
				<rect x="291.56" y="432.39" class="st6" width="44.81" height="218.27"/>
				<path class="st1" d="M336.37,652.15h-44.81c-0.83,0-1.5-0.67-1.5-1.5V432.38c0-0.83,0.67-1.5,1.5-1.5h44.81
					c0.83,0,1.5,0.67,1.5,1.5v218.27C337.87,651.48,337.2,652.15,336.37,652.15z M293.06,649.15h41.81V433.88h-41.81V649.15z"/>
			</g>
			<g>
				<rect x="365.28" y="512.17" class="st5" width="44.81" height="138.48"/>
				<path class="st1" d="M410.09,652.15h-44.81c-0.83,0-1.5-0.67-1.5-1.5V512.17c0-0.83,0.67-1.5,1.5-1.5h44.81
					c0.83,0,1.5,0.67,1.5,1.5v138.48C411.59,651.48,410.92,652.15,410.09,652.15z M366.78,649.15h41.81V513.67h-41.81V649.15z"/>
			</g>
			<g>
				<rect x="428.79" y="573.4" class="st5" width="44.81" height="77.26"/>
				<path class="st1" d="M473.6,652.15h-44.81c-0.83,0-1.5-0.67-1.5-1.5V573.4c0-0.83,0.67-1.5,1.5-1.5h44.81
					c0.83,0,1.5,0.67,1.5,1.5v77.25C475.1,651.48,474.43,652.15,473.6,652.15z M430.29,649.15h41.81V574.9h-41.81V649.15z"/>
			</g>
		</g>
	</g>
	<g>
		<g>
			<path class="st0" d="M789.42,262.67c0,0-114.8,56.5-120.24,66c-5.44,9.49,45.27,13.4,78.49-13.17
				c15.09-12.07,42.65-32.44,42.65-32.44L789.42,262.67z"/>
			<g>
				<path class="st1" d="M687.83,337.34c-9.06,0-16-1.54-18.85-3.98c-1.8-1.54-2.21-3.53-1.11-5.45
					c5.51-9.62,109.08-60.79,120.88-66.6c0.45-0.22,0.99-0.2,1.43,0.05c0.44,0.26,0.71,0.72,0.73,1.22l0.91,20.39
					c0.02,0.5-0.21,0.98-0.61,1.27c-0.28,0.2-27.71,20.49-42.61,32.41C729.6,331.87,704.94,337.34,687.83,337.34z M788.02,265.03
					c-45.97,22.68-113.77,57.81-117.54,64.38c-0.26,0.46-0.42,0.93,0.46,1.68c6.4,5.48,46.94,6.31,75.79-16.76
					c13.66-10.93,37.82-28.86,42.06-32L788.02,265.03z"/>
			</g>
		</g>
		<path class="st1" d="M779.51,219.62c0,0,7.14-22.2,32.87,2.49c25.73,24.7,36.03,39.81,75.01,48.25
			c38.98,8.44,60.4-5.79,66.44,9.34c6.04,15.14-4.55,58.72-40.61,62.8c-36.05,4.07-78.58-26.18-95.37-53.67
			c-16.78-27.49-19.68-57.69-19.68-57.69L779.51,219.62z"/>
		<g>
			<path class="st0" d="M949.24,586.42l24.47,1.56l12.47,61.77c0,0-14.34-4.27-18.65-27.88l-15.01-11.98L949.24,586.42z"/>
			<path class="st1" d="M986.18,651.25c-0.14,0-0.29-0.02-0.43-0.06c-0.62-0.18-15.05-4.74-19.59-28.49l-14.57-11.64
				c-0.3-0.24-0.5-0.58-0.55-0.96l-3.29-23.46c-0.06-0.45,0.08-0.9,0.39-1.23c0.31-0.33,0.73-0.51,1.2-0.48l24.47,1.56
				c0.68,0.04,1.24,0.54,1.38,1.2l12.47,61.77c0.1,0.52-0.07,1.05-0.46,1.4C986.91,651.11,986.55,651.25,986.18,651.25z
				 M953.93,609.08l14.54,11.61c0.28,0.23,0.47,0.55,0.54,0.9c3.03,16.63,11.02,23.21,15.12,25.56l-11.66-57.76l-21.49-1.37
				L953.93,609.08z"/>
		</g>
		<g>
			<g>
				<g>
					<path class="st7" d="M824.64,346.6c0,0,3.55-0.37,4.05,0.72c3.35,7.28,13.6,37.96,23.1,63.08c0.11,0.29,0.22,0.58,0.33,0.87
						c20.14,53.25,49.63,102.49,87.07,145.37l23.87,27.34l-15.32,45.45c0,0-79.95-69.72-111.83-118.98
						c-39.32-60.77-58.82-135.17-58.82-135.17L824.64,346.6z"/>
				</g>
				<g>
					<defs>
						<path id="SVGID_3_" d="M824.64,346.6c0,0,3.55-0.37,4.05,0.72c3.35,7.28,13.6,37.96,23.1,63.08c0.11,0.29,0.22,0.58,0.33,0.87
							c20.14,53.25,49.63,102.49,87.07,145.37l23.87,27.34l-15.32,45.45c0,0-79.95-69.72-111.83-118.98
							c-39.32-60.77-58.82-135.17-58.82-135.17L824.64,346.6z"/>
					</defs>
					<clipPath id="SVGID_4_">
						<use xlink:href="#SVGID_3_"  style="overflow:visible;"/>
					</clipPath>
					<path class="st8" d="M870.12,321.51c0,0-22.98,84.26-73.53,137.87c-36.55,38.77-101.34-17.53-101.34-17.53l-46.13,112.05
						l-6.93-3.39c-10.87-5.32-20.24-13.26-27.25-23.12l-2.86-4.02c0,0,33.95-89.5,53.43-105.97c19.48-16.48,90.39-42.51,90.39-42.51
						L870.12,321.51z"/>
				</g>
				<g>
					<path class="st1" d="M947.74,630.93c-0.36,0-0.71-0.13-0.99-0.37c-0.8-0.7-80.48-70.42-112.1-119.29
						c-39-60.27-58.81-134.86-59.01-135.61c-0.17-0.64,0.11-1.32,0.68-1.66l47.55-28.68c0.19-0.11,0.4-0.19,0.62-0.21
						c2.1-0.22,4.78-0.12,5.56,1.58c1.82,3.96,5.5,14.32,10.17,27.45c4.01,11.28,8.55,24.05,12.97,35.73l0.33,0.87
						c20.15,53.27,49.35,102.02,86.8,144.92L964.18,583c0.35,0.4,0.46,0.96,0.29,1.47l-15.32,45.45c-0.16,0.47-0.55,0.84-1.03,0.97
						C948,630.91,947.87,630.93,947.74,630.93z M778.83,375.98c2.58,9.38,22.16,77.75,58.33,133.66
						c28.84,44.58,98.16,106.81,109.87,117.18l14.32-42.49l-23.3-26.7c-37.68-43.17-67.07-92.23-87.34-145.83l-0.33-0.87
						c-4.43-11.7-8.98-24.5-12.99-35.78c-4.37-12.28-8.15-22.92-9.96-26.96c-0.42-0.13-1.41-0.18-2.32-0.12L778.83,375.98z"/>
				</g>
			</g>
			<g>
				<g>
					<polygon class="st9" points="720.5,582.94 698.05,590.39 689.49,567.17 711.94,559.73 					"/>
					<path class="st1" d="M721.06,584.34c-0.03,0.01-0.06,0.02-0.09,0.03l-22.45,7.45c-0.77,0.25-1.6-0.14-1.88-0.9l-8.56-23.22
						c-0.14-0.38-0.12-0.8,0.06-1.17c0.18-0.37,0.5-0.64,0.88-0.77l22.45-7.45c0.77-0.25,1.6,0.15,1.88,0.9l8.56,23.22
						c0.14,0.38,0.12,0.8-0.06,1.17C721.69,583.93,721.4,584.2,721.06,584.34z M698.96,588.51l19.6-6.5l-7.52-20.4l-19.6,6.5
						L698.96,588.51z"/>
				</g>
				<path class="st0" d="M720.23,582.24l9.3,21.91l-57.7,24.5c0,0-2.01-13.57,20.24-22.53l5.59-15.85L720.23,582.24z"/>
				<path class="st1" d="M672.39,630.04c-0.42,0.17-0.9,0.14-1.29-0.08c-0.41-0.23-0.68-0.63-0.75-1.09
					c-0.09-0.6-1.88-14.59,20.54-23.88l5.36-15.21c0.15-0.43,0.46-0.75,0.91-0.91l22.56-8.03c0.75-0.27,1.57,0.1,1.88,0.83
					l9.3,21.91c0.16,0.37,0.16,0.78,0.01,1.15c-0.15,0.37-0.44,0.66-0.8,0.82l-57.7,24.5C672.41,630.03,672.4,630.03,672.39,630.04z
					 M698.84,591.44l-5.35,15.17c-0.14,0.41-0.45,0.73-0.85,0.89c-15.78,6.35-18.76,14.96-19.26,18.85l54.19-23.01l-8.16-19.23
					L698.84,591.44z"/>
			</g>
			<g>
				<g>
					<path class="st7" d="M811.28,347.32c0,0,49.13,35,4.96,64.8c-44.17,29.8-101.14,52.77-101.14,52.77l14.96,109.39l-43.4,11.23
						c0,0-21.22-116.03-6.48-136.86c14.74-20.83,76.88-63.77,76.88-63.77L811.28,347.32z"/>
				</g>
				<g>
					<path class="st1" d="M730.62,575.68c-0.06,0.02-0.12,0.04-0.18,0.06l-43.4,11.23c-0.4,0.11-0.83,0.04-1.18-0.19
						c-0.35-0.22-0.59-0.58-0.67-0.99c-0.87-4.76-21.16-116.9-6.23-137.99c14.72-20.8,74.71-62.37,77.26-64.13l54.21-37.57
						c0.52-0.36,1.21-0.36,1.72,0.01c0.99,0.71,24.28,17.54,24.01,38.35c-0.14,10.74-6.56,20.47-19.08,28.92
						c-40.46,27.29-92.23,49.13-100.33,52.48l14.8,108.24C731.64,574.77,731.25,575.42,730.62,575.68z M687.85,583.66l40.54-10.49
						L713.61,465.1c-0.09-0.68,0.29-1.34,0.93-1.59c0.57-0.23,57.34-23.26,100.86-52.62c11.66-7.86,17.63-16.77,17.76-26.46
						c0.23-17.12-17.79-32.05-21.92-35.25l-53.32,36.95c-0.62,0.43-62.1,43.03-76.51,63.4C668.12,468.3,685.39,569.69,687.85,583.66
						z"/>
				</g>
			</g>
		</g>
		<g>
			<path class="st0" d="M837.26,268.15c0,0-21.5-11.44-28.75-12.62c-7.24-1.17-17.47,3.01-22.18,9.15c0,0-7.67,16.4-13.76,28.2
				c-2.13,4.14-3.01,8.79-2.48,13.41c1.56,13.63,4.41,41.22,3.04,49.68c0,0,35.82,14.83,60.14,2.31
				C833.28,358.28,832.34,285.4,837.26,268.15z"/>
			<path class="st1" d="M809.72,364.84c-18.77,0-36.12-7.05-37.15-7.48c-0.64-0.27-1.02-0.94-0.91-1.63
				c1.36-8.42-1.68-37.26-3.05-49.27c-0.56-4.9,0.35-9.84,2.63-14.27c6-11.64,13.66-27.99,13.73-28.15c0.05-0.1,0.1-0.19,0.17-0.28
				c5.01-6.53,15.82-10.98,23.61-9.71c7.4,1.2,28.32,12.3,29.21,12.77c0.62,0.33,0.93,1.06,0.74,1.74
				c-4.8,16.85-3.93,88.97-3.92,89.7c0.01,0.57-0.31,1.09-0.81,1.35C826.45,363.48,817.95,364.84,809.72,364.84z M774.78,354.99
				c5.99,2.25,35.91,12.54,56.99,2.36c-0.1-8.76-0.6-70.34,3.74-88.43c-4.37-2.29-21.21-10.94-27.23-11.91
				c-6.67-1.08-16.27,2.86-20.66,8.45c-0.79,1.69-8,17.02-13.71,28.1c-2.01,3.9-2.81,8.24-2.32,12.55
				C773.23,320.53,775.76,345.43,774.78,354.99z"/>
		</g>
		<g>
			<g>
				<path class="st9" d="M789.3,246.48l0.71,1.89c1.15,3.08,1.51,6.4,1.05,9.65l-0.44,3.09c0,0,5.51,12.24,17.41,0.35l-6.44-28.13
					L789.3,246.48z"/>
				<path class="st1" d="M798.39,268.16c-0.53,0-1.06-0.05-1.58-0.14c-5.09-0.93-7.45-6.07-7.55-6.29
					c-0.12-0.26-0.16-0.54-0.12-0.83l0.44-3.09c0.42-3,0.09-6.08-0.97-8.92L787.9,247c-0.2-0.53-0.08-1.13,0.31-1.55l12.29-13.15
					c0.38-0.41,0.95-0.57,1.49-0.42c0.54,0.14,0.95,0.57,1.07,1.11l6.44,28.13c0.12,0.5-0.04,1.03-0.4,1.4
					C805.35,266.27,801.75,268.16,798.39,268.16z M792.18,260.85c0.55,0.98,2.3,3.7,5.19,4.22c2.63,0.47,5.65-0.91,9.01-4.09
					l-5.62-24.56l-9.73,10.41l0.38,1.02c1.23,3.3,1.62,6.89,1.13,10.39L792.18,260.85z"/>
			</g>
			<g>
				<path class="st9" d="M776.31,227.34c-3.88,20.89,4.32,27.85,7.63,27.94c5.18,0.14,10.98-6.16,15.8-14.17
					C815.83,214.39,780.19,206.46,776.31,227.34z"/>
				<path class="st1" d="M784.11,256.78c-0.07,0-0.14,0-0.21,0c-1.83-0.05-3.94-1.34-5.66-3.46c-2.51-3.11-6.3-10.65-3.4-26.25
					c0.15-0.81,0.93-1.36,1.75-1.2c0.81,0.15,1.35,0.93,1.2,1.75c-2.68,14.42,0.59,21.11,2.78,23.81c1.48,1.83,2.88,2.34,3.41,2.35
					c3,0.08,6.83-2.75,10.8-7.96c0.5-0.66,1.44-0.79,2.1-0.29c0.66,0.5,0.79,1.44,0.29,2.1
					C792.55,253.71,788.16,256.78,784.11,256.78z"/>
			</g>
			<path class="st1" d="M797.44,201.08c-2.87,5.34-3.98,14.93,0.87,17.53c4.85,2.6,13.84-2.76,16.71-8.1s1.25-11.79-3.6-14.39
				C806.57,193.51,800.31,195.73,797.44,201.08z"/>
			<path class="st1" d="M801.08,240.52c0,0-12.04-14.16-26.98-13.66c0,0,5.94-21.43,22.1-13.54
				C814.89,222.45,801.08,240.52,801.08,240.52z"/>
			<path class="st9" d="M800.06,237.53c0.91-2.72,0.4-5.34-1.14-5.86s-3.53,1.27-4.43,3.99s-0.4,5.34,1.14,5.86
				C797.17,242.03,799.16,240.25,800.06,237.53z"/>
		</g>
		<g>
			<path class="st0" d="M827.31,264.57c0,0-10.91,12.23,17.85,47.82c20.89,25.85,34.35,39.52,38.65,35.51
				c4.31-4,0.23-23.99-11.63-41.06C860.32,289.76,843.01,267.63,827.31,264.57z"/>
			<path class="st1" d="M881.96,350.08c-0.12,0-0.25,0-0.37-0.01c-5.87-0.42-17.11-11.41-37.59-36.75
				c-6.83-8.45-12.01-16.32-15.4-23.38c-0.36-0.75-0.04-1.64,0.7-2c0.75-0.36,1.64-0.04,2,0.7c3.29,6.86,8.35,14.53,15.03,22.8
				c7.02,8.69,28.4,35.14,35.47,35.64c0.57,0.04,0.83-0.13,1-0.28c3.19-2.97,0.38-21.52-11.84-39.11
				c-16.21-23.32-30.66-37.44-44.19-43.17c-0.76-0.32-1.12-1.2-0.8-1.97c0.32-0.76,1.2-1.12,1.97-0.8
				c14.07,5.95,28.94,20.42,45.48,44.22c11.22,16.14,16.98,37.85,11.42,43.02C884.07,349.71,883.08,350.08,881.96,350.08z"/>
		</g>
		<g>
			<g>
				
					<rect x="729.04" y="215.27" transform="matrix(0.1905 -0.9817 0.9817 0.1905 275.0919 1002.2194)" class="st6" width="32.4" height="238.07"/>
				<polygon class="st9" points="631.47,295.71 625.3,327.51 597.67,305.64 				"/>
				<g>
					<defs>
						<polygon id="SVGID_5_" points="631.47,295.71 625.3,327.51 597.67,305.64 						"/>
					</defs>
					<clipPath id="SVGID_6_">
						<use xlink:href="#SVGID_5_"  style="overflow:visible;"/>
					</clipPath>
					
						<rect x="584.4" y="292.88" transform="matrix(0.1905 -0.9817 0.9817 0.1905 185.0984 832.7)" class="st10" width="26.11" height="22.47"/>
					<g class="st11">
						<polygon class="st6" points="624.08,297.05 627.7,301.12 622.58,304.8 623.44,306.5 625.77,311.1 620.72,314.36 
							624.03,320.05 619.01,323.19 626.22,331.51 631.29,305.38 633.85,292.22 						"/>
						<path class="st1" d="M626.87,332.87c-0.08,0.04-0.17,0.07-0.26,0.1c-0.55,0.15-1.15-0.03-1.52-0.47l-7.21-8.32
							c-0.29-0.33-0.41-0.77-0.35-1.21c0.07-0.43,0.32-0.82,0.69-1.05l3.79-2.37l-2.58-4.44c-0.4-0.69-0.19-1.58,0.48-2.01
							l3.91-2.53l-2.58-5.09c-0.33-0.66-0.14-1.47,0.46-1.9l3.77-2.71l-2.52-2.83c-0.31-0.35-0.44-0.82-0.35-1.28
							c0.09-0.46,0.39-0.85,0.81-1.06l9.77-4.84c0.5-0.23,1.12-0.19,1.57,0.15c0.45,0.35,0.67,0.92,0.56,1.48l-7.62,39.3
							C627.6,332.27,627.29,332.66,626.87,332.87z M621.29,323.53l4.05,4.67l6.46-33.3l-5.29,2.62l2.32,2.6
							c0.28,0.32,0.42,0.74,0.37,1.16c-0.05,0.42-0.27,0.81-0.62,1.05l-4.08,2.93l2.61,5.15c0.35,0.69,0.12,1.52-0.52,1.94
							l-3.84,2.48l2.59,4.46c0.41,0.7,0.18,1.6-0.5,2.03L621.29,323.53z"/>
					</g>
				</g>
			</g>
			<path class="st1" d="M859.65,374.26c-0.29,0.14-0.62,0.18-0.94,0.12l-233.7-45.4c-0.24-0.05-0.46-0.15-0.65-0.3l-27.63-21.87
				c-0.44-0.35-0.65-0.91-0.54-1.46c0.11-0.55,0.51-0.99,1.05-1.15l33.8-9.93c0.23-0.07,0.47-0.08,0.71-0.03l233.7,45.4
				c0.81,0.16,1.34,0.94,1.19,1.76l-6.17,31.8c-0.08,0.39-0.3,0.74-0.63,0.96C859.78,374.2,859.72,374.23,859.65,374.26z
				 M625.95,326.11l231.87,45.05l5.6-28.86l-231.87-45.05l-30.67,9.01L625.95,326.11z"/>
			<g>
				<path class="st9" d="M662.58,339.03c0,0-5.1-6.57-0.89-7.39c4.21-0.82,13.78,0.33,16.84,2.28c1.38,0.88,2.82,3.11,3.97,5.29
					c1.13,2.12-1.5,4.28-4.35,3.59L662.58,339.03z"/>
				<g>
					<path class="st1" d="M679.52,344.5c-0.46,0-0.92-0.05-1.38-0.16l-15.91-3.85c-0.33-0.08-0.62-0.27-0.83-0.54
						c-0.88-1.13-3.66-5.02-2.65-7.72c0.23-0.62,0.89-1.72,2.66-2.07c4.44-0.86,14.46,0.27,17.93,2.48
						c1.45,0.92,2.97,2.92,4.63,6.11c0.67,1.28,0.53,2.74-0.37,3.89C682.67,343.83,681.14,344.5,679.52,344.5z M663.46,337.7
						l15.38,3.72c1.05,0.25,1.99-0.12,2.38-0.61c0.22-0.29,0.17-0.48,0.08-0.66c-1.83-3.51-3.03-4.62-3.58-4.97
						c-2.6-1.65-11.72-2.85-15.75-2.07c-0.23,0.04-0.4,0.12-0.42,0.18C661.3,333.97,662.32,336.1,663.46,337.7z"/>
				</g>
			</g>
		</g>
		<g>
			<path class="st9" d="M781.66,358.47c1.14,0.62,2.78,1.39,5.11,2.27c5.11,1.94,12.94-1.19,12.94-1.19s54.5-25.61,63.18-27.6
				c9.32-2.13,22.38,5.49,23.65,18.01c0,0-52.51,17.31-82.23,20.65l-8.53,2.72c-2.32,0.96-4.95,0.76-7.09-0.54l-3.44-2.08
				c-1.73-1.04-2.98-2.71-3.52-4.66l-1.72-6.27C779.73,358.81,780.76,357.98,781.66,358.47z"/>
			<path class="st1" d="M827.6,367.98c-8.26,1.85-16.22,3.34-22.98,4.11l-8.33,2.65c-2.73,1.11-5.86,0.86-8.38-0.67l-3.44-2.08
				c-2.06-1.25-3.55-3.22-4.19-5.54l-1.72-6.27c-0.28-1.03,0.08-2.12,0.91-2.79c0.83-0.66,1.97-0.76,2.91-0.25c0,0,0,0,0,0
				c1.29,0.7,2.95,1.44,4.92,2.19c3.75,1.42,9.83-0.37,11.86-1.18c2.15-1.01,54.67-25.67,63.4-27.67c0.02,0,0.04-0.01,0.07-0.01
				c5.13-1.15,11.18,0.32,16.22,3.94c5.3,3.8,8.56,9.27,9.19,15.4c0.07,0.7-0.35,1.36-1.02,1.58
				C886.6,351.53,855.41,361.76,827.6,367.98z M803.97,369.16c0.05-0.01,0.11-0.02,0.16-0.03c26.77-3.02,72.8-17.63,80.75-20.2
				c-0.81-4.78-3.55-9.03-7.79-12.08c-4.29-3.08-9.58-4.39-13.82-3.45c-0.02,0-0.04,0.01-0.05,0.01
				c-8.42,1.93-62.33,27.24-62.88,27.49c-0.42,0.17-8.52,3.36-14.12,1.23c-1.76-0.67-3.29-1.33-4.58-1.98l1.51,5.51
				c0.43,1.58,1.45,2.92,2.85,3.77l3.44,2.08c1.73,1.05,3.87,1.21,5.74,0.44c0.04-0.02,0.08-0.03,0.12-0.04l8.53-2.72
				C803.89,369.18,803.93,369.17,803.97,369.16z M780.94,359.78L780.94,359.78C780.94,359.78,780.94,359.78,780.94,359.78
				C780.94,359.78,780.94,359.78,780.94,359.78z"/>
		</g>
	</g>
	<g>
		<g>
			<path class="st1" d="M156.41,652.32l-1.88-2.34c19.52-15.71,37.47-31.09,54.82-45.96c54.25-46.48,97.11-83.19,132.21-80.55
				c5.83,0.44,10.09,2.66,12.67,6.59c7.46,11.4-0.76,34.85-8,55.54c-4.82,13.77-9.81,28-6.91,31.55c0.21,0.26,0.85,1.04,3.11,0.74
				c14.3-1.91,37.43-25.96,59.81-49.21c23.8-24.74,46.28-48.1,61.26-49.53c12.21-1.15,16.02,16.51,19.7,33.6
				c2.9,13.47,5.9,27.4,12.57,29.14c4.21,1.1,10.19-2.69,17.78-11.27c39.62-44.84,56.26-69.64,56.42-69.88l2.5,1.66
				c-0.16,0.25-16.89,25.19-56.67,70.2c-8.51,9.63-15.31,13.62-20.78,12.19c-8.45-2.21-11.51-16.39-14.75-31.41
				c-3.41-15.81-6.92-32.17-16.48-31.25c-13.87,1.32-37,25.37-59.38,48.62c-23.78,24.71-46.23,48.05-61.57,50.1
				c-2.61,0.35-4.57-0.26-5.83-1.82c-3.95-4.85,0.62-17.91,6.41-34.44c6.67-19.05,14.97-42.75,8.33-52.91
				c-2.07-3.16-5.46-4.87-10.38-5.24c-33.87-2.57-76.3,33.81-130.03,79.84C193.93,621.19,175.96,636.58,156.41,652.32z"/>
		</g>
		<g>
			<polygon class="st1" points="572.84,512.05 569.85,511.86 570.43,502.8 561.79,506.96 560.49,504.26 573.75,497.86 			"/>
		</g>
	</g>
</g>
</svg>
